<?xml version="1.0" encoding="UTF-8"?>
<!-- Generator: Adobe Illustrator 20.1.0, SVG Export Plug-In . SVG Version: 6.00 Build 0)  -->
<svg version="1.1" xmlns="http://www.w3.org/2000/svg" xmlns:xlink="http://www.w3.org/1999/xlink" x="0px" y="0px" viewBox="0 0 500 103.2" style="enable-background:new 0 0 500 103.2;" xml:space="preserve">
<style type="text/css">
	.st0{fill:#FFFFFF;}
	.st1{fill:#F8C024;}
</style>
<g id="Lager_2">
</g>
<g id="Lager_1">
	<g>
		<g id="Radar_xA0_Urklippsbana">
			<g>
				<path class="st0" d="M30.6,36.8c-0.9,0-1.7,0.8-1.7,1.7s0.8,1.7,1.7,1.7c0.9,0,1.7-0.8,1.7-1.7S31.6,36.8,30.6,36.8z M62,14.7      c-0.9,0-1.7,0.8-1.7,1.7s0.8,1.7,1.7,1.7s1.7-0.8,1.7-1.7S62.9,14.7,62,14.7z M23.1,74.9c0.9,0,1.7-0.8,1.7-1.7      s-0.8-1.7-1.7-1.7c-0.9,0-1.7,0.8-1.7,1.7S22.1,74.9,23.1,74.9z M47.9,0.9C22,0.9,1,21.9,1,47.7c0,25.9,21,46.8,46.8,46.8      c25.9,0,46.8-21,46.8-46.8C94.7,21.9,73.7,0.9,47.9,0.9z M31.9,67.2c-5.4-4.5-8.8-11.4-8.8-19c0-2.8,0.5-5.5,1.3-8      c0.3,0.4,0.8,0.7,1.4,0.7c0.9,0,1.7-0.8,1.7-1.7s-0.8-1.7-1.7-1.7c-0.1,0-0.2,0-0.3,0c4-8.4,12.5-14.1,22.4-14.1      c13.7,0,24.8,11.1,24.8,24.8c0,10.2-6.1,18.9-14.9,22.7c0-0.1,0-0.3,0-0.4c0-0.9-0.8-1.7-1.7-1.7s-1.7,0.8-1.7,1.7      c0,0.6,0.3,1.1,0.7,1.4c-2.3,0.7-4.7,1.1-7.3,1.1c-1.5,0-3-0.1-4.4-0.4l1.3-9.5c1,0.2,2.1,0.3,3.2,0.3c7.1,0,13.1-4.9,14.8-11.5      c0.3,0.4,0.8,0.7,1.4,0.7c0.9,0,1.7-0.8,1.7-1.7c0-0.9-0.8-1.7-1.7-1.7c-0.4,0-0.7,0.1-1,0.3c0-0.5,0.1-1,0.1-1.4      c0-8.4-6.8-15.3-15.3-15.3s-15.3,6.8-15.3,15.3c0,4.6,2,8.7,5.3,11.5L31.9,67.2z M35.2,48.2c0-7,5.6-12.6,12.6-12.6      s12.6,5.6,12.6,12.6s-5.6,12.6-12.6,12.6c-0.9,0-1.9-0.1-2.7-0.3L46.6,49c0.3,0.4,0.8,0.7,1.4,0.7c0.9,0,1.7-0.8,1.7-1.7      c0-0.9-0.8-1.7-1.7-1.7S46.2,47,46.2,48c0,0.3,0.1,0.6,0.3,0.9l-7,8.8C36.8,55.4,35.2,52,35.2,48.2z M47.9,87.6      c-2.2,0-4.3-0.2-6.4-0.5l1.6-12c1.6,0.3,3.2,0.4,4.8,0.4c15.2,0,27.5-12.3,27.5-27.5c0-15.2-12.3-27.5-27.5-27.5      c-15.2,0-27.5,12.3-27.5,27.5c0,8.5,3.9,16.1,9.9,21.2l-7.5,9.4C13.9,71.3,8.3,60.3,8.3,48C8.3,26.1,26,8.4,47.9,8.4      c21.9,0,39.6,17.7,39.6,39.6C87.5,69.9,69.8,87.6,47.9,87.6z"/>
			</g>
		</g>
		<g id="Flightradar_xA0_Urklippsbana">
			<g>
				<path class="st0" d="M158.6,22.1c-1.3,0-2.4,0.4-3.2,1.3c-0.8,0.9-1.2,2-1.2,3.2c0,1.3,0.4,2.3,1.3,3.2c0.9,0.9,1.9,1.3,3.2,1.3      c1.3,0,2.3-0.4,3.2-1.3c0.9-0.9,1.3-1.9,1.3-3.2c0-1.3-0.5-2.3-1.4-3.2C161,22.6,159.9,22.1,158.6,22.1z M137.2,83.3h8.2v-66      h-8.2V83.3z M126.8,17.2c-1.7,0-3.2,0.3-4.7,0.9c-1.5,0.6-2.8,1.4-3.9,2.5c-1.1,1.1-2,2.3-2.7,3.8c-0.7,1.4-1.1,3-1.2,4.6h-0.1      v11.4h-6.1v7.2h6.1v35.8h8.2V47.5h6.1v-7.2h-6.1V29.8h0.1v-0.6c0-1.2,0.4-2.2,1.3-3.1c0.9-0.9,1.9-1.3,3.1-1.3      c0.3,0,0.6,0,0.8,0.1c0.3,0.1,0.5,0.1,0.8,0.3v-7.8c-0.3-0.1-0.6-0.1-0.9-0.1C127.4,17.2,127.1,17.2,126.8,17.2z M154.4,83.4      h8.3l0.2-45.1h-8.3L154.4,83.4z M190.6,39.7c-2-0.9-4-1.4-6-1.4c-1.7,0-3.2,0.3-4.6,0.9c-1.4,0.6-2.7,1.4-3.8,2.4      c-1.1,1-2,2.2-2.6,3.6c-0.7,1.4-1,2.8-1,4.4h-0.1v22h0.1c0,1.6,0.3,3.1,0.9,4.5c0.6,1.4,1.5,2.6,2.6,3.6c1.1,1,2.3,1.8,3.8,2.4      c1.5,0.6,3,0.9,4.7,0.9c2,0,4-0.5,6-1.5v9.2h-0.1v0.5c0,1.2-0.4,2.2-1.2,3.1c-0.8,0.9-1.8,1.3-3,1.3c-0.6,0-1.2-0.1-1.6-0.3v7.7      c0.3,0,0.6,0,0.9,0c0.3,0,0.6,0,0.9,0c1.6,0,3.1-0.3,4.6-0.9c1.5-0.6,2.7-1.4,3.8-2.4c1.1-1,2-2.2,2.6-3.6      c0.7-1.4,1.1-2.9,1.2-4.5V38.5h-7.9V39.7z M189.8,71.3c0,0.6-0.2,1.1-0.5,1.6c-0.3,0.5-0.7,0.9-1.2,1.3      c-0.5,0.4-1.1,0.7-1.7,0.9c-0.6,0.2-1.2,0.3-1.8,0.3c-1.1,0-2.1-0.4-2.9-1.2c-0.8-0.8-1.2-1.7-1.2-2.9V49.3      c0-1.1,0.4-2.1,1.2-2.9c0.8-0.8,1.8-1.2,2.9-1.2c0.6,0,1.2,0.1,1.8,0.3c0.6,0.2,1.2,0.5,1.7,0.9c0.5,0.4,0.9,0.8,1.2,1.3      c0.3,0.5,0.5,1,0.5,1.6V71.3z M260,17.3h-8.2v23.1h-6.1v7.3h6.1v24h0.1c0.1,1.7,0.5,3.2,1.2,4.6c0.7,1.4,1.6,2.7,2.7,3.8      c1.1,1.1,2.4,1.9,3.9,2.5c1.5,0.6,3.1,0.9,4.8,0.9c0.3,0,0.6,0,0.9,0c0.3,0,0.6,0,0.9,0v-7.9c-0.3,0.1-0.6,0.2-0.8,0.3      c-0.3,0.1-0.5,0.1-0.8,0.1c-1.3,0-2.3-0.4-3.2-1.3c-0.9-0.9-1.3-1.9-1.3-3.1v-0.6H260V47.7h6.1v-7.3H260V17.3z M349.2,39.4      c-1.9-1-4-1.5-6.1-1.5c-1.7,0-3.3,0.3-4.8,0.9c-1.5,0.6-2.8,1.4-3.9,2.5c-1.1,1.1-2,2.3-2.6,3.8c-0.7,1.4-1,2.9-1,4.5v22.5      c0.1,1.6,0.4,3.1,1.1,4.5c0.7,1.4,1.5,2.6,2.6,3.7c1.1,1.1,2.4,1.9,3.9,2.5c1.5,0.6,3,0.9,4.7,0.9c2.1,0,4.1-0.5,6.1-1.5v1.1      h8.3v-66h-8.3V39.4z M348.4,72.4c0,0.6-0.2,1.1-0.5,1.6c-0.3,0.5-0.8,1-1.3,1.3c-0.5,0.4-1.1,0.7-1.8,0.9      c-0.7,0.2-1.3,0.3-1.8,0.3c-1.2,0-2.2-0.4-3.1-1.2c-0.9-0.8-1.3-1.8-1.3-2.9V50c0-1.1,0.4-2.1,1.3-2.9c0.9-0.8,1.9-1.2,3.1-1.2      c0.6,0,1.2,0.1,1.8,0.3c0.7,0.2,1.2,0.5,1.8,0.9c0.5,0.4,0.9,0.8,1.3,1.3c0.3,0.5,0.5,1.1,0.5,1.6V72.4z M384.6,39.4      c-1.9-1-4-1.5-6.1-1.5c-1.7,0-3.2,0.3-4.7,0.9c-1.5,0.6-2.8,1.4-3.8,2.5c-1.1,1.1-2,2.3-2.6,3.7c-0.7,1.4-1,2.9-1.1,4.5v22.5      c0,1.6,0.3,3.1,1,4.5c0.7,1.4,1.5,2.7,2.6,3.7c1.1,1.1,2.4,1.9,3.9,2.5c1.5,0.6,3,0.9,4.7,0.9c2.1,0,4.2-0.5,6.1-1.4v1.1h8.1      v-45h-8.1V39.4z M383.7,71.6c0,0.6-0.2,1.1-0.5,1.6c-0.3,0.5-0.8,1-1.3,1.3c-0.5,0.4-1.1,0.7-1.7,0.9c-0.6,0.2-1.2,0.3-1.8,0.3      c-1.2,0-2.2-0.4-3.1-1.2c-0.9-0.8-1.3-1.8-1.3-2.9V49.2c0-1.1,0.4-2.1,1.3-2.9c0.9-0.8,1.9-1.2,3.1-1.2c0.6,0,1.2,0.1,1.8,0.3      c0.6,0.2,1.2,0.5,1.7,0.9c0.5,0.4,0.9,0.8,1.3,1.3c0.3,0.5,0.5,1.1,0.5,1.6V71.6z M410.3,39.5v-1.1h-8.4v45h8.4V48.4      c0.3-0.9,1-1.7,2-2.3c1.1-0.6,2.1-0.9,3.1-0.9c0.5,0,0.8,0,1,0.1V38C414.2,38,412.2,38.5,410.3,39.5z M314.7,39.4      c-1.9-1-4-1.5-6.1-1.5c-1.7,0-3.2,0.3-4.7,0.9c-1.5,0.6-2.8,1.4-3.8,2.5c-1.1,1.1-2,2.3-2.6,3.7c-0.7,1.4-1,2.9-1.1,4.5v22.5      c0,1.6,0.3,3.1,1,4.5c0.7,1.4,1.5,2.7,2.6,3.7c1.1,1.1,2.4,1.9,3.9,2.5c1.5,0.6,3,0.9,4.7,0.9c2.1,0,4.2-0.5,6.1-1.4v1.1h8.1      v-45h-8.1V39.4z M313.9,71.6c0,0.6-0.2,1.1-0.5,1.6c-0.3,0.5-0.8,1-1.3,1.3c-0.5,0.4-1.1,0.7-1.7,0.9c-0.6,0.2-1.2,0.3-1.8,0.3      c-1.2,0-2.2-0.4-3.1-1.2c-0.9-0.8-1.3-1.8-1.3-2.9V49.2c0-1.1,0.4-2.1,1.3-2.9c0.9-0.8,1.9-1.2,3.1-1.2c0.6,0,1.2,0.1,1.8,0.3      c0.6,0.2,1.2,0.5,1.7,0.9c0.5,0.4,0.9,0.8,1.3,1.3c0.3,0.5,0.5,1.1,0.5,1.6V71.6z M283.2,38.4h-8.4v45h8.4V48.4      c0.3-0.9,1-1.7,2-2.3c1.1-0.6,2.1-0.9,3.1-0.9c0.5,0,0.8,0,1,0.1V38c-2.2,0-4.2,0.5-6.1,1.5V38.4z M235.2,44.9      c-0.6-1-1.3-1.9-2-2.7c-1.1-1.1-2.5-1.9-4-2.5c-1.5-0.6-3.1-0.9-4.8-0.9c-1.4,0-2.7,0.2-4.1,0.6c-1.3,0.4-2.6,1-3.7,1.7V17.3      h-8.2v66h8.3V51.9c0-0.6,0.2-1.2,0.7-1.8c0.5-0.6,1-1.1,1.7-1.5c0.7-0.4,1.4-0.8,2.1-1c0.8-0.2,1.5-0.3,2.1-0.3      c0.6,0,1.3,0.1,1.9,0.3c0.7,0.2,1.3,0.6,1.8,1c0.5,0.4,1,0.9,1.3,1.5c0.3,0.6,0.5,1.2,0.5,1.8v31.4h8.5V52.4      c0-1.7-0.2-3.1-0.6-4.3C236.2,46.8,235.7,45.8,235.2,44.9z"/>
			</g>
		</g>
		<g id="_x32_4_outline_xA0_Urklippsbana">
			<g>
				<path class="st1" d="M435.8,75.3l4.4-3.8c8.7-8.1,15-15.2,15-24c0-8.2-5.4-15.2-16.5-15.2c-6.3,0-11.8,2.2-15.4,5.2l2.8,6.7      c2.5-1.9,6.3-4.2,10.7-4.2c6.6,0,8.9,3.9,8.9,8.4c-0.1,6.6-5.6,12.6-17.4,23.6l-5.9,5.5v5.8h34v-7.9h-20.6V75.3z M493.5,63.4      V33.2h-11.2l-20.4,31.2v6.2h22.7v12.7h8.9V70.6h6.5v-7.2H493.5z M484.6,49.7v13.7h-13.7l0.1-0.2l9.2-13.7      c1.5-2.8,2.9-5.3,4.4-8.5h0.3C484.7,44,484.6,46.9,484.6,49.7z"/>
			</g>
		</g>
	</g>
</g>
</svg>